<svg version="1.1" xmlns="http://www.w3.org/2000/svg" xmlns:xlink="http://www.w3.org/1999/xlink" width="79.5355" height="66.49298" viewBox="0,0,79.5355,66.49298"><defs><linearGradient x1="198.16255" y1="228.52145" x2="224.85213" y2="197.92915" gradientUnits="userSpaceOnUse" id="color-1"><stop offset="0" stop-color="#ffffff"/><stop offset="1" stop-color="#a0f2ff"/></linearGradient><linearGradient x1="244.73296" y1="154.18983" x2="244.73296" y2="207.34894" gradientUnits="userSpaceOnUse" id="color-2"><stop offset="0" stop-color="#ffffff"/><stop offset="1" stop-color="#a0f2ff"/></linearGradient><linearGradient x1="228.5607" y1="173.271" x2="228.5607" y2="186.729" gradientUnits="userSpaceOnUse" id="color-3"><stop offset="0" stop-color="#000000"/><stop offset="1" stop-color="#969696"/></linearGradient><linearGradient x1="244.9346" y1="173.271" x2="244.9346" y2="186.729" gradientUnits="userSpaceOnUse" id="color-4"><stop offset="0" stop-color="#000000"/><stop offset="1" stop-color="#969696"/></linearGradient><linearGradient x1="260.85991" y1="173.271" x2="260.85991" y2="186.729" gradientUnits="userSpaceOnUse" id="color-5"><stop offset="0" stop-color="#000000"/><stop offset="1" stop-color="#969696"/></linearGradient></defs><g transform="translate(-203.43127,-153.18983)"><g data-paper-data="{&quot;isPaintingLayer&quot;:true}" fill-rule="nonzero" stroke-width="2" stroke-linecap="butt" stroke-linejoin="miter" stroke-miterlimit="10" stroke-dasharray="" stroke-dashoffset="0" style="mix-blend-mode: normal"><path d="M225.5282,198.51897c0,0 0.02761,4.34845 -5.41932,8.61788c-9.09512,7.12898 -13.7077,9.72612 -13.7077,9.72612c0,0 4.84127,-7.64296 5.46679,-12.35619c0.62455,-4.70596 -1.7166,-15.90141 -1.7166,-15.90141z" fill="url(#color-1)" stroke="#a0f6ff"/><path d="M281.96677,180.76938c0,14.67949 -15.77294,25.45806 -37.23381,26.35526c-8.81746,0.36863 -16.93322,-1.96746 -23.31426,-5.63007c-0.58579,-0.33623 -7.6042,-2.97216 -11.11853,-7.51476c-3.1134,-4.02436 -2.80102,-9.78645 -2.80102,-13.21043c0,-14.67948 16.67014,-26.57955 37.23381,-26.57955c20.56367,0 37.23381,11.90007 37.23381,26.57956z" fill="url(#color-2)" stroke="#a0f6ff"/><path d="M234.95325,180c0,3.71633 -2.86204,6.72901 -6.39255,6.72901c-3.53051,0 -6.39255,-3.01268 -6.39255,-6.72901c0,-3.71633 2.86204,-6.729 6.39255,-6.729c3.53051,0 6.39255,3.01268 6.39255,6.729z" fill="url(#color-3)" stroke="#a1f6ff"/><path d="M251.32715,180c0,3.71633 -2.86204,6.72901 -6.39255,6.72901c-3.53051,0 -6.39255,-3.01268 -6.39255,-6.72901c0,-3.71633 2.86204,-6.729 6.39255,-6.729c3.53051,0 6.39255,3.01268 6.39255,6.729z" fill="url(#color-4)" stroke="#a1f6ff"/><path d="M267.25246,180c0,3.71633 -2.86204,6.72901 -6.39255,6.72901c-3.53051,0 -6.39255,-3.01268 -6.39255,-6.72901c0,-3.71633 2.86204,-6.729 6.39255,-6.729c3.53051,0 6.39255,3.01268 6.39255,6.729z" fill="url(#color-5)" stroke="#a1f6ff"/></g></g></svg>