<svg version="1.1" xmlns="http://www.w3.org/2000/svg" xmlns:xlink="http://www.w3.org/1999/xlink" width="48.50365" height="53.74726" viewBox="0,0,48.50365,53.74726"><defs><linearGradient x1="226.6682" y1="154.11823" x2="226.6682" y2="178.38637" gradientUnits="userSpaceOnUse" id="color-1"><stop offset="0" stop-color="#ffffff"/><stop offset="1" stop-color="#8f8f8f"/></linearGradient><linearGradient x1="225.8364" y1="205.81638" x2="225.8364" y2="181.54823" gradientUnits="userSpaceOnUse" id="color-2"><stop offset="0" stop-color="#ffffff"/><stop offset="1" stop-color="#8f8f8f"/></linearGradient><linearGradient x1="254.16361" y1="154.18362" x2="254.16361" y2="178.45177" gradientUnits="userSpaceOnUse" id="color-3"><stop offset="0" stop-color="#ffffff"/><stop offset="1" stop-color="#8f8f8f"/></linearGradient><linearGradient x1="254.09821" y1="205.88178" x2="254.09821" y2="181.61363" gradientUnits="userSpaceOnUse" id="color-4"><stop offset="0" stop-color="#ffffff"/><stop offset="1" stop-color="#8f8f8f"/></linearGradient></defs><g transform="translate(-215.74797,-153.12647)"><g data-paper-data="{&quot;isPaintingLayer&quot;:true}" fill="none" fill-rule="nonzero" stroke-width="2" stroke-linecap="round" stroke-linejoin="miter" stroke-miterlimit="10" stroke-dasharray="" stroke-dashoffset="0" style="mix-blend-mode: normal"><path d="M217.35975,178.61067l0.2243,-23.3272c0,0 1.08955,-1.1388 2.00902,-1.1572c3.12725,-0.06255 16.60789,0.26 16.60789,0.26" stroke="url(#color-1)"/><path d="M235.36915,205.54834c0,0 -13.48064,0.32254 -16.60789,0.26c-0.91947,-0.01839 -2.00902,-1.1572 -2.00902,-1.1572l0.2243,-21.0842" data-paper-data="{&quot;index&quot;:null}" stroke="url(#color-2)"/><path d="M244.63085,154.45167c0,0 13.48064,-0.32254 16.60789,-0.26c0.91947,0.01839 2.00901,1.1572 2.00901,1.1572l-0.2243,23.32721" data-paper-data="{&quot;index&quot;:null}" stroke="url(#color-3)"/><path d="M263.18235,184.08093v20.6356c0,0 -1.08954,1.1388 -2.00901,1.1572c-3.12725,0.06255 -16.60789,-0.26 -16.60789,-0.26" data-paper-data="{&quot;index&quot;:null}" stroke="url(#color-4)"/></g></g></svg>