<svg version="1.1" xmlns="http://www.w3.org/2000/svg" xmlns:xlink="http://www.w3.org/1999/xlink" width="40.38891" height="42" viewBox="0,0,40.38891,42"><defs><linearGradient x1="240.005" y1="160" x2="240.005" y2="200" gradientUnits="userSpaceOnUse" id="color-1"><stop offset="0" stop-color="#ffffff"/><stop offset="1" stop-color="#a0f2ff"/></linearGradient></defs><g transform="translate(-219.81054,-159)"><g data-paper-data="{&quot;isPaintingLayer&quot;:true}" fill="url(#color-1)" fill-rule="nonzero" stroke="#a0f2ff" stroke-width="2" stroke-linecap="butt" stroke-linejoin="miter" stroke-miterlimit="10" stroke-dasharray="" stroke-dashoffset="0" style="mix-blend-mode: normal"><path d="M259.08,185.26c0.38,0.31 0.49,0.85 0.24,1.28l-4,6.93c-0.25,0.43 -0.77,0.6 -1.22,0.43l-4.98,-2.01c-1.03,0.8 -2.16,1.46 -3.38,1.97l-0.75,5.3c-0.08,0.47 -0.49,0.84 -0.99,0.84h-8c-0.5,0 -0.91,-0.37 -0.99,-0.84l-0.75,-5.3c-1.22,-0.51 -2.35,-1.18 -3.38,-1.97l-4.98,2.01c-0.45,0.18 -0.97,0 -1.22,-0.43l-4,-6.93c-0.25,-0.44 -0.14,-0.98 0.24,-1.28l4.22,-3.31c-0.08,-0.64 -0.14,-1.29 -0.14,-1.95c0,-0.66 0.06,-1.31 0.14,-1.95l-4.22,-3.31c-0.38,-0.31 -0.49,-0.85 -0.24,-1.28l4,-6.93c0.25,-0.43 0.77,-0.6 1.22,-0.43l4.98,2.01c1.03,-0.8 2.16,-1.46 3.38,-1.97l0.75,-5.3c0.08,-0.47 0.49,-0.84 0.99,-0.84h8c0.5,0 0.91,0.37 1,0.84l0.75,5.3c1.22,0.51 2.35,1.18 3.38,1.97l4.98,-2.01c0.45,-0.18 0.97,0 1.22,0.43l4,6.93c0.25,0.44 0.14,0.98 -0.24,1.28l-4.23,3.31c0.08,0.64 0.14,1.29 0.14,1.95c0,0.66 -0.06,1.31 -0.14,1.95zM247,180c0,-3.87 -3.13,-7 -7,-7c-3.87,0 -7,3.13 -7,7c0,3.87 3.13,7 7,7c3.87,0 7,-3.13 7,-7z"/></g></g></svg>