<svg version="1.1" xmlns="http://www.w3.org/2000/svg" xmlns:xlink="http://www.w3.org/1999/xlink" width="81.16667" height="83" viewBox="0,0,81.16667,83"><defs><linearGradient x1="240" y1="138.5" x2="240" y2="221.5" gradientUnits="userSpaceOnUse" id="color-1"><stop offset="0" stop-color="#ff7575"/><stop offset="1" stop-color="#d90000"/></linearGradient><linearGradient x1="240.16667" y1="148.5" x2="240.16667" y2="221.33333" gradientUnits="userSpaceOnUse" id="color-2"><stop offset="0" stop-color="#ff5656"/><stop offset="1" stop-color="#d90000"/></linearGradient><linearGradient x1="240.23334" y1="153.56667" x2="240.23334" y2="208.96667" gradientUnits="userSpaceOnUse" id="color-3"><stop offset="0" stop-color="#ffffff"/><stop offset="1" stop-color="#939393"/></linearGradient><linearGradient x1="241.23334" y1="153.96667" x2="241.23334" y2="206.36667" gradientUnits="userSpaceOnUse" id="color-4"><stop offset="0" stop-color="#ffffff"/><stop offset="1" stop-color="#939393"/></linearGradient></defs><g transform="translate(-199.5,-138.5)"><g data-paper-data="{&quot;isPaintingLayer&quot;:true}" fill-rule="nonzero" stroke-linejoin="miter" stroke-miterlimit="10" stroke-dasharray="" stroke-dashoffset="0" style="mix-blend-mode: normal"><path d="M280.5,180c0,22.91982 -18.13247,41.5 -40.5,41.5c-22.36753,0 -40.5,-18.58018 -40.5,-41.5c0,-22.91981 18.13247,-41.5 40.5,-41.5c22.36753,0 40.5,18.58019 40.5,41.5z" fill="url(#color-1)" stroke="none" stroke-width="0" stroke-linecap="butt"/><path d="M280.66667,184.91667c0,20.11237 -18.13247,36.41667 -40.5,36.41667c-22.36753,0 -40.5,-16.3043 -40.5,-36.41667c0,-20.11237 18.13247,-36.41667 40.5,-36.41667c22.36753,0 40.5,16.3043 40.5,36.41667z" fill="url(#color-2)" stroke="none" stroke-width="0" stroke-linecap="butt"/><path d="M218.33334,153.56667l43.8,55.4" fill="none" stroke="url(#color-3)" stroke-width="5" stroke-linecap="round"/><path d="M219.53334,206.36667l43.4,-52.4" fill="none" stroke="url(#color-4)" stroke-width="5" stroke-linecap="round"/></g></g></svg>