<svg version="1.1" xmlns="http://www.w3.org/2000/svg" xmlns:xlink="http://www.w3.org/1999/xlink" width="54.40232" height="74.57286" viewBox="0,0,54.40232,74.57286"><defs><linearGradient x1="198.16255" y1="228.52145" x2="224.85213" y2="197.92915" gradientUnits="userSpaceOnUse" id="color-1"><stop offset="0" stop-color="#ffffff"/><stop offset="1" stop-color="#a0f2ff"/></linearGradient><linearGradient x1="244.73296" y1="154.18983" x2="244.73296" y2="207.34894" gradientUnits="userSpaceOnUse" id="color-2"><stop offset="0" stop-color="#ffffff"/><stop offset="1" stop-color="#a0f2ff"/></linearGradient><linearGradient x1="228.5607" y1="173.271" x2="228.5607" y2="186.729" gradientUnits="userSpaceOnUse" id="color-3"><stop offset="0" stop-color="#000000"/><stop offset="1" stop-color="#969696"/></linearGradient><linearGradient x1="244.9346" y1="173.271" x2="244.9346" y2="186.729" gradientUnits="userSpaceOnUse" id="color-4"><stop offset="0" stop-color="#000000"/><stop offset="1" stop-color="#969696"/></linearGradient><linearGradient x1="260.85991" y1="173.271" x2="260.85991" y2="186.729" gradientUnits="userSpaceOnUse" id="color-5"><stop offset="0" stop-color="#000000"/><stop offset="1" stop-color="#969696"/></linearGradient><linearGradient x1="243.94791" y1="152.17112" x2="243.94791" y2="212.95644" gradientUnits="userSpaceOnUse" id="color-6"><stop offset="0" stop-color="#ffffff"/><stop offset="1" stop-color="#fcffe6"/></linearGradient><linearGradient x1="242.71426" y1="141.62902" x2="242.71426" y2="151.49822" gradientUnits="userSpaceOnUse" id="color-7"><stop offset="0" stop-color="#00ff2d"/><stop offset="1" stop-color="#535d53"/></linearGradient></defs><g transform="translate(-218.17414,-141.12902)"><g data-paper-data="{&quot;isPaintingLayer&quot;:true}" fill-rule="nonzero" stroke-linejoin="miter" stroke-miterlimit="10" stroke-dasharray="" stroke-dashoffset="0" style="mix-blend-mode: normal"><path d="" fill="url(#color-1)" stroke="#a0f6ff" stroke-width="2" stroke-linecap="butt"/><path d="" fill="url(#color-2)" stroke="#a0f6ff" stroke-width="2" stroke-linecap="butt"/><path d="" fill="url(#color-3)" stroke="#a1f6ff" stroke-width="2" stroke-linecap="butt"/><path d="" fill="url(#color-4)" stroke="#a1f6ff" stroke-width="2" stroke-linecap="butt"/><path d="" fill="url(#color-5)" stroke="#a1f6ff" stroke-width="2" stroke-linecap="butt"/><path d="M218.71415,211.83494l4.9346,-59.88812l45.08431,1.3458c0,0 3.29158,52.74151 3.3434,59.89153c0.01151,1.58867 -2.8948,2.01529 -2.8948,2.01529z" fill="url(#color-6)" stroke="#c2c5b2" stroke-width="1" stroke-linecap="butt"/><path d="M260.33816,157.77862c0,1.25 -1.25,1.25 -1.25,1.25h-0.4486c-1.70298,0 -4.06406,-1.09072 -5.54461,-0.70634c-1.48334,0.3851 -2.59106,0.70635 -4.12436,0.9145c-0.947,0.12856 -1.8985,-0.68409 -2.82894,-0.4659c-0.471,0.11045 -0.63501,0.987 -1.11527,0.92873c-1.09227,-0.13253 -1.53714,-1.61091 -2.4794,-2.17904c-1.68327,-1.0149 -5.33441,0.66046 -6.96347,1.02968c0,0 -1.22023,0.27116 -1.4914,-0.94907c-0.27116,-1.22023 0.94907,-1.4914 0.94907,-1.4914c2.5393,-0.55127 6.0988,-2.18058 8.73754,-0.76472c0.63571,0.3411 0.46375,2.18024 1.1094,1.85836c0.32823,-0.16363 0.31774,-0.80319 0.67913,-0.86567c0.99644,-0.17228 2.00696,0.60664 3.00286,0.4313c1.96302,-0.34561 4.28253,-1.24885 6.31922,-0.8799c1.53824,0.27865 2.07627,0.63946 3.75021,0.63946h0.4486c0,0 1.25,0 1.25,1.25z" fill="#4e4f47" stroke="none" stroke-width="0.5" stroke-linecap="butt"/><path d="M267.29147,174.37683c0,0.9954 -0.79265,1.19814 -1.11555,1.23944c-1.18895,0.71186 -2.236,1.43356 -3.89659,0.74206c-0.54537,-0.2271 -0.37815,-1.14314 -0.73907,-1.61084c-0.61401,-0.79566 -1.42684,1.50227 -2.3592,1.87748c-1.74742,0.70321 -5.30805,0.2982 -6.83076,-0.12287c-0.48522,-0.13418 -3.30461,1.26269 -3.63085,1.35566c-0.75731,-0.07999 -1.6743,0.232 -2.27192,-0.23998c-1.03508,-0.81748 -0.39552,-2.64164 -0.93694,-3.84436c-0.08506,-0.18895 -0.34792,0.25592 -0.55331,0.28332c-0.51877,0.06922 -1.04673,0.00039 -1.5701,0c-1.46272,-0.0011 -2.14516,0.0639 -3.64101,-0.25527c-1.45949,-0.31141 -2.42952,0.024 -3.93427,-0.20542c-1.03354,-0.15758 -1.89808,-0.94584 -2.92839,-1.12331c-1.39008,-0.23945 -3.13797,0.55925 -4.6338,0.19284c-1.64516,-0.40299 -1.88068,-1.09762 -3.70373,-1.07614c0,0 -1.25,0 -1.25,-1.25c0,-1.25 1.25,-1.25 1.25,-1.25c1.88739,0.01721 2.7302,0.74437 4.37107,1.16686c1.3537,0.34855 3.02039,-0.47055 4.3382,-0.25576c1.02377,0.16687 1.87851,0.95992 2.90341,1.11969c1.78147,0.2777 3.89399,0.3236 5.7361,0.43893c1.02617,0.06425 4.48504,-0.47989 5.20082,0.28091c0.48756,0.51823 0.51748,3.97625 1.27714,3.54186c1.51431,-0.43438 2.75929,-1.54643 4.44395,-1.33594c1.14548,0.14312 3.9404,0.91935 5.28145,0.32573c0.95357,-0.4221 1.47074,-1.70089 2.4973,-1.88433c0.76375,-0.13648 1.65039,-0.21697 2.32111,0.17301c0.47412,0.27567 0.19516,1.16687 0.60673,1.52936c0.46852,0.41265 1.1239,-0.54992 1.65084,-0.88477l0.86742,-0.17813c0,0 1.25,0 1.25,1.25z" fill="#4e4f47" stroke="none" stroke-width="0.5" stroke-linecap="butt"/><path d="M267.29147,184.47033c0,1.25 -1.25,1.25 -1.25,1.25h-0.4486c-2.16372,0 -4.42569,0.19323 -6.55691,-0.25527c-1.18894,-0.2502 -2.77241,-0.99409 -3.87657,-1.0959c-0.99994,-0.0922 -1.94181,0.53324 -2.93591,0.67512c-1.01675,-0.00064 -2.61531,0.11183 -3.57649,-0.3597c-0.80152,-0.3932 -1.0121,-1.61523 -1.84201,-1.94431c-1.03023,-0.4085 -3.19563,1.2108 -4.76467,0.94087c-1.33734,-0.23007 -2.72331,-0.28155 -4.00597,-0.72446c-1.50573,-0.51994 -2.35592,-1.9886 -3.90637,-2.4287c-3.6247,-1.02887 -6.55146,2.23872 -9.87557,2.71539c0,0 -1.24035,0.15504 -1.39539,-1.0853c-0.15504,-1.24035 1.0853,-1.39539 1.0853,-1.39539c3.77645,-0.37472 6.42008,-3.91303 10.76004,-2.66781c2.83483,0.81337 5.35239,4.12543 8.75136,3.34106c1.72221,-0.39743 2.08788,-1.70361 4.14184,-1.06735c0.96582,0.29918 1.29816,1.62697 2.19539,2.0931c0.26525,0.1378 2.25418,0.08891 2.25531,0.0889c1.12557,-0.16099 2.20997,-0.7461 3.34449,-0.67068c0.55591,0.03695 0.97634,0.56775 1.51731,0.70098c2.78551,0.68598 5.78562,0.63946 8.68481,0.63946h0.4486c0,0 1.25,0 1.25,1.25z" fill="#4e4f47" stroke="none" stroke-width="0.5" stroke-linecap="butt"/><path d="M266.1574,191.47116c0.17678,1.23744 -1.06066,1.41421 -1.06066,1.41421l-1.65827,0.23372c-0.41607,0.00091 -2.92745,0.0266 -3.19397,-0.06732c-1.18594,-0.41791 -1.90445,-1.80944 -3.27282,-1.95207c-0.98151,-0.10231 -1.65317,0.86938 -2.49729,1.08345c-1.52031,0.38556 -2.06977,0.03324 -3.33451,-0.41055c-1.81947,0.36932 -3.86725,1.14832 -5.76106,0.6512c-1.39723,-0.36677 -2.47706,-2.39416 -3.5377,-2.45791c-1.60337,-0.09638 -3.23753,0.43804 -4.90775,0.22836c-2.60738,-0.32734 -5.07883,-1.6481 -7.79625,-1.33743c-1.93057,0.22071 -3.55009,0.8855 -5.48838,0.90091c0,0 -1.25,0 -1.25,-1.25c0,-1.25 1.25,-1.25 1.25,-1.25c2.38809,0.02461 4.5867,-1.05861 7.04137,-0.89409c2.27589,0.15253 4.37717,1.07961 6.59002,1.35478c1.49423,0.18581 3.54982,-0.50533 4.96145,-0.22024c2.25515,0.45544 1.78831,2.15427 3.63991,2.47669c1.81052,0.31526 3.68987,-0.43686 5.45395,-0.6946c2.66953,0.84959 3.2445,-0.86247 5.8318,-0.6729c1.84476,0.13516 2.45175,1.52731 3.90478,2.08534c0.68156,0.26174 1.45914,-0.06915 2.18923,-0.06732l1.48194,-0.21488c0,0 1.23744,-0.17678 1.41421,1.06066z" fill="#4e4f47" stroke="none" stroke-width="0.5" stroke-linecap="butt"/><path d="M267.96437,197.70404c0,1.25 -1.25,1.25 -1.25,1.25h-0.2243c-3.92496,0 -9.56642,1.07175 -12.99269,-0.97418c-1.48056,-0.2742 -2.41623,0.57511 -4.05284,0.28122c-1.07009,-0.19216 -2.05435,-0.89134 -3.14147,-0.87714c-3.17643,0.04149 -6.67522,0.74628 -9.84513,0.20816c-1.22462,-0.20789 -2.18347,-1.20799 -3.35373,-1.62442c-1.13819,-0.40502 -2.41553,0.07046 -3.62364,0.07046c-2.16823,0 -4.33647,0 -6.5047,0c0,0 -1.25,0 -1.25,-1.25c0,-1.25 1.25,-1.25 1.25,-1.25c3.23755,0 7.9305,-0.89462 10.95586,0.07046c1.04667,0.33389 1.83897,1.36115 2.92667,1.51578c4.45997,0.63404 8.64594,-0.32206 13.03221,0.67682c1.49158,0.33967 2.83416,-0.42691 4.47056,-0.16738c3.14243,1.8947 8.51078,0.82022 12.12891,0.82022h0.2243c0,0 1.25,0 1.25,1.25z" fill="#4e4f47" stroke="none" stroke-width="0.5" stroke-linecap="butt"/><path d="M264.15127,204.43304c0,1.25 -1.25,1.25 -1.25,1.25h-0.2243c-3.40449,0 -6.64812,-0.4486 -10.0935,-0.4486c-1.98128,0 -4.14446,-0.24847 -6.10703,-0.01208c-0.91185,0.10983 -1.64456,0.84904 -2.53131,1.08823c-2.44577,0.65972 -6.29332,0.52223 -8.7855,0.26029c-4.86719,-0.51157 -8.82604,-4.1036 -13.48205,-4.7135c0,0 -1.23744,-0.17678 -1.06066,-1.41421c0.17678,-1.23744 1.41421,-1.06066 1.41421,-1.06066c4.68599,0.71269 8.58354,4.20398 13.43396,4.7071c2.14786,0.22279 5.71942,0.39122 7.81271,-0.18831c0.98842,-0.27365 1.8366,-1.00969 2.85189,-1.15477c2.05141,-0.29314 4.37599,-0.01208 6.45378,-0.01208c3.43966,0 6.70374,0.4486 10.0935,0.4486h0.2243c0,0 1.25,0 1.25,1.25z" fill="#4e4f47" stroke="none" stroke-width="0.5" stroke-linecap="butt"/><path d="M243.66252,147.8547l3.03808,6.61415" fill="none" stroke="#c2c5b2" stroke-width="1" stroke-linecap="round"/><path d="M247.64886,146.56362c0,2.72531 -2.2093,4.9346 -4.9346,4.9346c-2.72531,0 -4.9346,-2.2093 -4.9346,-4.9346c0,-2.72531 2.2093,-4.9346 4.9346,-4.9346c2.72531,0 4.9346,2.2093 4.9346,4.9346z" fill="url(#color-7)" stroke="#388938" stroke-width="1" stroke-linecap="butt"/></g></g></svg>